<?xml version="1.0" standalone="no"?><svg xmlns="http://www.w3.org/2000/svg" viewBox="0 0 1440 320"><path fill="#fffbf2" fill-opacity="1" d="M0,160L6.2,160C12.3,160,25,160,37,170.7C49.2,181,62,203,74,181.3C86.2,160,98,96,111,90.7C123.1,85,135,139,148,144C160,149,172,107,185,122.7C196.9,139,209,213,222,224C233.8,235,246,181,258,149.3C270.8,117,283,107,295,112C307.7,117,320,139,332,165.3C344.6,192,357,224,369,218.7C381.5,213,394,171,406,128C418.5,85,431,43,443,58.7C455.4,75,468,149,480,192C492.3,235,505,245,517,256C529.2,267,542,277,554,261.3C566.2,245,578,203,591,208C603.1,213,615,267,628,261.3C640,256,652,192,665,144C676.9,96,689,64,702,74.7C713.8,85,726,139,738,133.3C750.8,128,763,64,775,74.7C787.7,85,800,171,812,186.7C824.6,203,837,149,849,144C861.5,139,874,181,886,208C898.5,235,911,245,923,250.7C935.4,256,948,256,960,256C972.3,256,985,256,997,229.3C1009.2,203,1022,149,1034,144C1046.2,139,1058,181,1071,186.7C1083.1,192,1095,160,1108,176C1120,192,1132,256,1145,266.7C1156.9,277,1169,235,1182,229.3C1193.8,224,1206,256,1218,250.7C1230.8,245,1243,203,1255,186.7C1267.7,171,1280,181,1292,192C1304.6,203,1317,213,1329,213.3C1341.5,213,1354,203,1366,197.3C1378.5,192,1391,192,1403,186.7C1415.4,181,1428,171,1434,165.3L1440,160L1440,0L1433.8,0C1427.7,0,1415,0,1403,0C1390.8,0,1378,0,1366,0C1353.8,0,1342,0,1329,0C1316.9,0,1305,0,1292,0C1280,0,1268,0,1255,0C1243.1,0,1231,0,1218,0C1206.2,0,1194,0,1182,0C1169.2,0,1157,0,1145,0C1132.3,0,1120,0,1108,0C1095.4,0,1083,0,1071,0C1058.5,0,1046,0,1034,0C1021.5,0,1009,0,997,0C984.6,0,972,0,960,0C947.7,0,935,0,923,0C910.8,0,898,0,886,0C873.8,0,862,0,849,0C836.9,0,825,0,812,0C800,0,788,0,775,0C763.1,0,751,0,738,0C726.2,0,714,0,702,0C689.2,0,677,0,665,0C652.3,0,640,0,628,0C615.4,0,603,0,591,0C578.5,0,566,0,554,0C541.5,0,529,0,517,0C504.6,0,492,0,480,0C467.7,0,455,0,443,0C430.8,0,418,0,406,0C393.8,0,382,0,369,0C356.9,0,345,0,332,0C320,0,308,0,295,0C283.1,0,271,0,258,0C246.2,0,234,0,222,0C209.2,0,197,0,185,0C172.3,0,160,0,148,0C135.4,0,123,0,111,0C98.5,0,86,0,74,0C61.5,0,49,0,37,0C24.6,0,12,0,6,0L0,0Z"></path></svg>